<?xml version="1.0" encoding="utf-8"?>
<svg width="512px" height="512px" viewBox="0 0 512 512" version="1.1" xmlns:xlink="http://www.w3.org/1999/xlink" xmlns="http://www.w3.org/2000/svg">
  <defs>
    <path d="M512 0L512 0L512 512L0 512L0 0L512 0Z" id="path_1" />
    <clipPath id="clip_1">
      <use xlink:href="#path_1" clip-rule="evenodd" fill-rule="evenodd" />
    </clipPath>
  </defs>
  <g id="icons8-razer-512">
    <path d="M512 0L512 0L512 512L0 512L0 0L512 0Z" id="icons8-razer-512" fill="#D3D3D3" fill-opacity="0" stroke="none" />
    <path d="M443.187 31.875C441.066 31.9081 439.044 32.7827 437.567 34.3065C436.09 35.8302 435.279 37.8783 435.312 40C435.312 43.0674 434.571 46.0357 433.719 47.75C432.867 49.4643 432.21 49.2111 433.469 49C432.344 49.1671 431.268 49.5719 430.312 50.1875C428.755 50.4906 427.008 50.7175 425.562 51.0312C422.782 49.022 419.43 47.9593 416 48C416 48 410.175 48.0059 403.438 48.5C400.069 48.7471 396.45 49.0982 392.781 49.75C389.112 50.4018 385.687 50.7479 380.5 53.9375C373.876 58.016 368.37 66.3161 368.031 73.9688L368 74C367.817 78.2444 369.537 80.9302 370.844 83.9688C364.529 81.2519 358.688 77.7362 348.406 77.9688C338.238 78.1966 326.303 84.7352 320.062 95.25C320.062 95.25 320.031 95.2812 320.031 95.2812C316.09 101.926 314.607 109.34 314.656 115.531L314.656 115.562C314.822 132.639 324.951 145.169 335.719 156.25C346.486 167.331 359.341 177.502 370.75 187.406C382.159 197.311 391.944 207.1 396.469 214.688C400.993 222.275 401.579 224.742 397.906 230.938C394.443 236.774 392.362 237.43 387 237.781C382.471 238.078 375.188 236.033 367.812 233.344C367.832 233.119 367.888 232.914 367.906 232.688C368.194 227.696 367.756 222.567 366.156 217.719C364.62 212.839 361.464 208.42 357.656 205.156C353.928 201.7 349.104 199.865 344.656 198.312C348.224 201.304 351.524 204.335 353.156 208.063C354.9 211.663 355.621 215.368 355.125 219C354.801 221.613 353.936 224.128 352.875 226.594C347.864 224.12 342.73 221.636 338.344 219.094C334.437 216.83 330.897 214.723 327.594 212.938C324.29 211.152 322.21 209.49 316.281 208.406C314.776 208.131 313.282 208.125 311.781 208.031C311.983 203.863 311.535 199.613 310.094 195.438C307.053 186.63 301.316 177.635 292.344 168.781C285.521 162.049 275.793 156.716 264.688 153.969C262.617 145.798 261.151 137.429 255.5 130.062C247.456 119.578 233.458 112 217.437 112C196.945 112 181.062 125.684 173.5 140.844C165.938 156.004 163.088 173.089 160.25 189.219C157.412 205.349 154.617 220.604 150.719 229.656C148.77 234.183 146.693 236.909 145.156 238.188C143.62 239.466 142.72 240 139.469 240C135.834 240 138.426 240.721 138.031 240.062C137.636 239.405 136.406 235.286 135.812 229.688C135.219 224.089 135.224 217.503 132.719 209.625C131.466 205.686 129.353 201.024 124.937 197.031C120.522 193.038 113.91 190.781 108.156 190.781C100.597 190.781 91.7665 195.279 87.75 199.969C84.0791 204.255 82.8123 207.214 81.125 209.938C78.7318 208.814 73.1936 205.07 70.125 199.281C68.2532 195.339 64.8525 192.332 60.7106 190.957C56.5687 189.583 52.0451 189.959 48.1875 192C47.1652 189.922 46.4062 187.387 46.4062 184C46.4401 181.835 45.595 179.749 44.0639 178.217C42.5327 176.686 40.4464 175.841 38.2813 175.875C36.1595 175.908 34.1378 176.783 32.661 178.306C31.1841 179.83 30.3731 181.878 30.4063 184C30.4062 185.203 30.665 186.221 30.7812 187.344C28.5329 187.248 26.2978 187.219 24 187.219C21.1149 187.178 18.4313 188.694 16.9769 191.186C15.5224 193.678 15.5225 196.76 16.9769 199.252C18.4314 201.744 21.1149 203.26 24 203.219C29.824 203.219 33.5743 203.458 35.5938 204.219C36.4149 204.524 37.2805 204.693 38.1562 204.719C38.6592 205.304 39.1753 205.913 39.6875 206.438C39.7334 209.186 40.4868 211.877 41.875 214.25C49.0525 227.79 59.4928 236.39 70.4375 240.531L70.4688 240.531C82.9007 245.205 95.4481 240.544 103.75 231.219C103.842 232.075 103.905 232.162 104 233.063C104.711 239.772 105.445 247.958 110.594 256.531C115.743 265.104 127.448 272 139.469 272C149.262 272 158.746 268.534 165.625 262.812C172.504 257.091 176.875 249.817 180.094 242.344C186.531 227.396 188.958 210.651 191.75 194.781C194.542 178.911 197.716 163.996 202.125 155.156C206.534 146.316 208.57 144 217.437 144C225.049 144 227.169 145.719 230.094 149.531C232.815 153.079 235.138 159.707 236.531 167.438C233.21 169.373 230.004 171.578 227.281 174.312C223.505 178.008 220.905 182.795 219.625 187.531C218.153 192.283 218.627 197.116 219.219 201.5C220.339 197.116 221.641 192.887 224.312 189.688C226.808 186.456 229.901 184.034 233.469 182.594C234.975 181.971 236.539 181.568 238.125 181.188C238.394 186.021 238.488 190.832 238.5 195.281C238.511 199.4 238.473 203.18 238.562 206.656C238.616 208.73 238.67 210.664 238.969 212.875C236.899 214.032 234.91 215.37 233.031 216.938C225.548 223.176 218.931 232.147 213.969 243.969C210.674 251.819 209.543 261.408 210.344 271.281C200.801 276.804 191.139 282.568 184.344 292.094C176.232 303.463 173.329 320.746 180.437 335.938C184.984 345.654 192.82 353.25 201.625 357.438C210.43 361.625 219.781 362.842 229.062 362.813C247.626 362.753 266.888 357.729 285.438 352.969C303.987 348.209 321.847 343.675 334.188 343.031C340.358 342.709 344.919 343.423 347.312 344.375C349.706 345.327 350.276 345.741 351.406 348.156C351.465 348.283 351.477 348.248 351.531 348.344C350.36 349.712 345.552 353.155 339.469 356.375C333.36 359.609 326.337 362.634 319.5 367.938C316.081 370.589 312.342 373.979 309.844 379.719C307.346 385.458 307.543 393.567 310.25 399.344C313.273 405.793 318.802 409.412 323.156 411.25C327.511 413.088 331.353 413.749 334.969 414.219C341.87 415.116 348.018 415.213 351.281 415.594C351.58 420.123 352.67 422.117 346.031 428.313C341.037 432.754 339.33 439.832 341.75 446.063C338.822 448.143 334.835 450.094 328 450.094C325.115 450.053 322.431 451.569 320.977 454.061C319.522 456.553 319.522 459.635 320.977 462.127C322.431 464.619 325.115 466.135 328 466.094C329.85 466.094 331.491 465.824 333.188 465.625C333.201 467.596 333.188 468.93 333.188 472C333.147 474.885 334.662 477.569 337.154 479.023C339.646 480.478 342.729 480.478 345.221 479.023C347.712 477.569 349.228 474.885 349.187 472C349.187 466.046 349.137 463.593 349.187 460.5C350.918 459.467 352.459 458.364 353.781 457.25C354.218 456.882 354.351 456.561 354.75 456.188C359.582 456.761 364.412 455.105 367.875 451.688C382.373 438.159 384.219 420.585 383.969 412.844L383.969 412.813C383.41 396.713 370.538 385.939 356.469 383.969C356.089 383.916 355.877 383.923 355.5 383.875C362.183 380.34 369.653 376.522 376.031 368.969C382.741 361.023 385.819 346.225 380.375 334.594C375.993 325.229 367.866 318.09 359.156 314.625C350.446 311.16 341.483 310.595 332.531 311.063C314.628 311.997 295.801 317.296 277.469 322C259.137 326.704 241.342 330.773 228.969 330.813C222.782 330.832 218.193 329.871 215.375 328.531C212.557 327.191 211.064 325.918 209.406 322.375C206.531 316.231 207.217 315.114 210.375 310.688C213.237 306.676 219.998 301.563 228.094 296.969C231.636 299.537 235.465 301.866 239.719 303.406C245.079 305.454 251.141 305.894 256.438 305.094C261.862 304.47 266.451 302.054 270.562 299.75C265.667 300.502 260.852 301.026 256.5 299.938C252.164 298.993 248.442 297.234 245.594 294.563C244.215 293.322 243.002 291.957 241.906 290.5C247.873 287.77 253.954 284.995 259.469 282.906C264.037 281.176 268.222 279.647 271.875 278.156C275.528 276.665 278.026 276.212 282.812 272.219C283.482 271.661 283.976 270.973 284.594 270.375C289.552 274.722 295.623 277.887 302.406 279.125C311.596 280.803 322.835 280.519 335.406 277.438C344.06 275.316 352.855 270.501 360.688 263.812C369.72 266.942 378.815 270.391 389.094 269.719C402.549 268.838 417.172 261.212 425.438 247.281L425.438 247.25C434.996 231.126 432.092 211.936 423.969 198.312C415.845 184.689 403.822 173.726 391.719 163.219C379.615 152.711 367.249 142.78 358.656 133.938C350.064 125.095 346.682 117.917 346.656 115.25C346.642 113.493 346.765 112.964 347.562 111.625L347.562 111.594L347.594 111.562C349.424 108.468 347.882 109.997 349.125 109.969C350.96 109.927 359.365 112.91 368.812 116.406C373.536 118.154 378.703 120.109 385.875 119.969C393.047 119.828 402.85 115.015 407.25 107.594C409.574 103.673 411.055 98.2394 410.562 93.3125C410.07 88.3856 408.155 84.7008 406.562 82.1875C405.967 81.248 405.841 81.2233 405.312 80.4688C405.483 80.4554 405.611 80.4187 405.781 80.4062C411.152 80.0132 416 80 416 80C424.051 80.1107 430.93 74.2218 432.062 66.25C439.825 64.6832 448.615 63.2188 456 63.2188C458.885 63.2596 461.569 61.7437 463.023 59.2518C464.478 56.7598 464.478 53.6777 463.023 51.1857C461.569 48.6937 458.885 47.1779 456 47.2188C454.216 47.2188 452.359 47.5525 450.531 47.6562C451.055 45.2079 451.312 42.6359 451.312 40C451.346 37.8349 450.501 35.7486 448.97 34.2174C447.439 32.6863 445.353 31.8411 443.188 31.875L443.187 31.875ZM270.312 192.219C275.23 197.374 279.341 204.451 279.844 205.906C280.456 207.68 279.969 209.249 276.906 210.188C274.06 211.06 271.661 209.644 270.781 208.031C270.687 207.428 270.587 206.793 270.562 205.844C270.495 203.266 270.511 199.509 270.5 195.188C270.498 194.362 270.318 193.086 270.312 192.219L270.312 192.219ZM308.062 239.875C308.533 239.788 309.094 239.849 309.625 239.875C310.21 240.1 311.236 240.478 312.375 241.094C314.803 242.406 318.235 244.428 322.188 246.719C316.444 247.339 309.857 247.935 308.156 247.625C304.575 246.971 303.683 245.041 304.062 243.219L304.062 243.188C304.346 241.815 305.832 240.287 308.062 239.875L308.062 239.875ZM258.312 240.094C260.049 240.187 261.726 240.83 262.781 241.938C264.641 243.89 264.514 245.286 262.75 247.031C262.103 247.401 261.07 248.005 259.781 248.531C256.934 249.693 252.821 251.189 248.125 252.969C247.157 253.335 245.767 254.048 244.75 254.438C247.749 248.626 252.156 242.644 253.531 241.5C254.78 240.459 256.576 240.001 258.312 240.094L258.312 240.094Z" id="Shape" fill="#808080" fill-rule="evenodd" stroke="none" clip-path="url(#clip_1)" />
  </g>
</svg>